<mxfile host="app.diagrams.net" modified="2024-05-09T00:10:45.533Z" agent="Mozilla/5.0 (X11; Linux x86_64) AppleWebKit/537.36 (KHTML, like Gecko) Chrome/124.0.0.0 Safari/537.36" etag="Qg7jsSAUwMjzAvjDQtJC" version="24.3.1" type="github">
  <diagram name="Page-1" id="jgKBZM6dZKrANJpfSgC6">
    <mxGraphModel dx="1434" dy="759" grid="0" gridSize="10" guides="1" tooltips="1" connect="1" arrows="1" fold="1" page="0" pageScale="1" pageWidth="850" pageHeight="1100" math="0" shadow="0">
      <root>
        <mxCell id="0" />
        <mxCell id="1" parent="0" />
      </root>
    </mxGraphModel>
  </diagram>
</mxfile>
